<svg width="21" height="23" viewBox="0 0 21 23" fill="none" xmlns="http://www.w3.org/2000/svg">
<path d="M10.498 0.5C11.0689 0.5 11.6164 0.813878 11.9189 1.38281L11.9766 1.5V1.50098L14.1855 6.48145L19.1074 7.28027H19.1064C19.8008 7.39226 20.2555 7.92066 20.4229 8.49414C20.5902 9.06778 20.4949 9.75811 20.0225 10.2695L20.0215 10.2686L16.4316 14.1582L17.2822 19.666V19.667L17.3027 19.8691C17.3511 20.8733 16.6027 21.7197 15.666 21.7197C15.4681 21.7197 15.2689 21.6804 15.0771 21.5996L14.8877 21.5049L10.498 18.9385L6.11035 21.502L6.11133 21.5029C5.86272 21.6497 5.59537 21.7207 5.33008 21.7207C4.33012 21.7207 3.5488 20.7537 3.71582 19.666V19.665L4.56641 14.1572L0.976562 10.2676C0.504436 9.75612 0.409708 9.06571 0.577148 8.49219C0.744626 7.9189 1.19939 7.39028 1.89355 7.27832L6.81445 6.48047L9.02441 1.50098V1.5L9.08203 1.38281C9.38462 0.811554 9.9292 0.500084 10.498 0.5ZM10.999 15.9307L11.5449 16.25L14.2578 17.8359L13.7266 14.3936L13.5752 13.4111L13.7021 12.9961L14.3438 12.2998L16.6416 9.80859L13.5117 9.30176L12.626 9.15723L12.248 8.86719L11.8525 7.97266L10.999 6.0498V15.9307Z" fill="#FFEE00" stroke="black" stroke-miterlimit="1"/>
</svg>
