<svg width="16" height="17" viewBox="0 0 16 17" fill="none" xmlns="http://www.w3.org/2000/svg">
<path d="M13.6036 2.825C12.1071 1.325 10.1143 0.5 7.99643 0.5C3.625 0.5 0.0678571 4.05714 0.0678571 8.42857C0.0678571 9.825 0.432143 11.1893 1.125 12.3929L0 16.5L4.20357 15.3964C5.36071 16.0286 6.66429 16.3607 7.99286 16.3607H7.99643C12.3643 16.3607 16 12.8036 16 8.43214C16 6.31429 15.1 4.325 13.6036 2.825ZM7.99643 15.025C6.81071 15.025 5.65 14.7071 4.63929 14.1071L4.4 13.9643L1.90714 14.6179L2.57143 12.1857L2.41429 11.9357C1.75357 10.8857 1.40714 9.675 1.40714 8.42857C1.40714 4.79643 4.36429 1.83929 8 1.83929C9.76071 1.83929 11.4143 2.525 12.6571 3.77143C13.9 5.01786 14.6643 6.67143 14.6607 8.43214C14.6607 12.0679 11.6286 15.025 7.99643 15.025ZM11.6107 10.0893C11.4143 9.98929 10.4393 9.51071 10.2571 9.44643C10.075 9.37857 9.94286 9.34643 9.81071 9.54643C9.67857 9.74643 9.3 10.1893 9.18214 10.325C9.06786 10.4571 8.95 10.475 8.75357 10.375C7.58929 9.79286 6.825 9.33571 6.05714 8.01786C5.85357 7.66786 6.26071 7.69286 6.63929 6.93571C6.70357 6.80357 6.67143 6.68929 6.62143 6.58929C6.57143 6.48929 6.175 5.51429 6.01071 5.11786C5.85 4.73214 5.68571 4.78571 5.56429 4.77857C5.45 4.77143 5.31786 4.77143 5.18571 4.77143C5.05357 4.77143 4.83929 4.82143 4.65714 5.01786C4.475 5.21786 3.96429 5.69643 3.96429 6.67143C3.96429 7.64643 4.675 8.58929 4.77143 8.72143C4.87143 8.85357 6.16786 10.8536 8.15714 11.7143C9.41429 12.2571 9.90714 12.3036 10.5357 12.2107C10.9179 12.1536 11.7071 11.7321 11.8714 11.2679C12.0357 10.8036 12.0357 10.4071 11.9857 10.325C11.9393 10.2357 11.8071 10.1857 11.6107 10.0893Z" fill="black"/>
</svg>
